<svg width="37" height="16" viewBox="0 0 37 16" fill="none" xmlns="http://www.w3.org/2000/svg">
<path fill-rule="evenodd" clip-rule="evenodd" d="M32.3409 6.9376H17.1345C16.2376 6.9376 3.15647 6.55947 1.97527 6.89072C1.26747 7.03291 0.747148 7.83448 1.12527 8.68604C1.55027 9.72512 4.57215 9.39384 6.41447 9.39384C11.3253 9.39384 16.2381 9.5829 21.2425 9.5829L32.6237 9.48915C31.6799 11.2845 27.4285 14.2112 29.3659 15.5812C30.5471 16.478 31.2081 15.203 31.6331 14.7312C33.3331 12.7952 34.7034 11.0952 36.2611 9.06395C38.1501 6.56083 36.072 6.79675 32.5783 3.67955C31.9173 3.06547 29.3205 0.37331 28.9892 0.23267C28.0454 -0.23921 27.1001 0.515483 27.1939 1.50767C27.2876 2.73579 32.1047 6.46687 32.3407 6.93887L32.3409 6.9376Z" fill="white"/>
</svg>
