<svg width="12" height="28" viewBox="0 0 12 28" fill="none" xmlns="http://www.w3.org/2000/svg">
<path fill-rule="evenodd" clip-rule="evenodd" d="M5.22022 3.99112L5.22022 15.3959C5.22022 16.0686 4.93663 25.8794 5.18507 26.7653C5.29171 27.2962 5.89289 27.6864 6.53156 27.4028C7.31087 27.0841 7.06241 24.8177 7.06241 23.4359C7.06241 19.7528 7.20421 16.0682 7.20421 12.3149L7.13389 3.77902C8.48038 4.48684 10.6754 7.67542 11.7029 6.22237C12.3756 5.33644 11.4193 4.84072 11.0654 4.52197C9.61345 3.24697 8.33845 2.21923 6.81499 1.05097C4.93765 -0.365841 5.11459 1.19276 2.77669 3.81306C2.31613 4.30875 0.297011 6.25641 0.191531 6.50488C-0.162379 7.2127 0.403641 7.92169 1.14778 7.85137C2.06887 7.78105 4.86622 4.16812 5.22022 3.99112Z" fill="#10877A"/>
</svg>
