<svg width="138" height="141" viewBox="0 0 138 141" fill="none" xmlns="http://www.w3.org/2000/svg">
<g clip-path="url(#clip0_11_43)">
<path d="M2.14737 56.5193C-4.70712 81.5423 5.26176 110.28 26.1523 125.681C39.4916 135.531 56.2438 139.915 72.797 140.826C86.2927 141.595 100.485 140.001 111.805 132.613C127.775 122.208 134.985 102.381 137.218 83.4496C139.962 60.2343 136.08 34.9693 120.636 17.419C112.559 8.42297 101.649 2.46559 89.7199 0.537752C75.6981 -1.72542 68.3885 3.55532 56.4998 8.90723C44.6111 14.2591 33.4477 15.6256 22.9242 24.5644C12.96 32.8953 5.72239 44.0268 2.14737 56.5193Z" fill="#EF4136"/>
<path d="M76 109.301C85.6992 108.199 95.602 104.699 102.301 97.199C109.903 88.5974 113.301 77.097 111.602 65.801C109.903 53.801 100.5 44.403 90.6018 38.102C84.2034 34.0004 78.1018 33.4028 72.2038 34.8012C71.8054 33.6996 70.7038 32.9028 69.3054 33.3012C56.6064 36.8012 43.6064 43.0004 37.4074 55.3012C31.5012 67.0002 32.3019 81.5002 39.7004 92.3012C48.0012 104.301 61.3994 111 76.0014 109.301L76 109.301ZM41.5 58.301C44.6016 51.9026 49.6992 47.301 55.699 44C54.8982 46 56.8982 48.8008 59.0974 47.1992C68.2966 40.5 77.3984 35.6992 88.0974 42.5C96.4997 47.8008 104.999 56 106.601 66.199C108.203 76.5 105.101 87.301 97.703 94.801C91.3046 101.403 81.203 104.403 72.203 104.602C48.601 105.199 31.101 80.1018 41.5 58.3008V58.301Z" fill="white"/>
<path d="M66.301 62.602C67.0002 56.102 77.602 53.5004 81.199 59.102C84.5974 64.3012 80.199 70.102 74.9998 71.301C72.3006 71.9025 69.199 71.0002 67.4998 73.6994C65.8006 76.3986 67.3982 80.6994 67.8982 83.5978C68.4998 86.797 73.2966 85.3986 72.699 82.297C72.3983 80.797 71.3982 77.0978 72.199 76.6954C72.8983 76.297 75.4998 76.3946 76.3982 76.1954C79.2966 75.4962 82.0974 73.9962 84.0974 71.6954C87.4958 67.9962 88.3982 62.297 86.199 57.6954C80.699 46.2974 62.699 50.6954 61.398 62.5938C60.898 65.8008 65.898 65.8008 66.3003 62.6016L66.301 62.602Z" fill="white"/>
<path d="M72.301 88.699C72.0002 88.699 71.6994 88.8006 71.4026 88.8006C71.301 88.699 71.1018 88.699 71.0041 88.6013C69.8049 88.2029 68.5041 88.7029 67.6057 89.4998C66.7073 90.3982 66.4065 91.8982 66.9065 93.1014C67.7073 95.1014 69.8049 96.6014 72.0081 96.3006C74.1097 95.9998 75.6097 94.4022 75.6097 92.199C75.6097 91.199 75.2113 90.199 74.5081 89.4998C74.0003 88.8982 73.1995 88.4998 72.3011 88.699H72.301Z" fill="white"/>
</g>
<defs>
<clipPath id="clip0_11_43">
<rect width="138" height="141" fill="white"/>
</clipPath>
</defs>
</svg>
