<svg width="37" height="16" viewBox="0 0 37 16" fill="none" xmlns="http://www.w3.org/2000/svg">
<path fill-rule="evenodd" clip-rule="evenodd" d="M32.3408 6.9376H17.1344C16.2375 6.9376 3.15641 6.55947 1.97521 6.89072C1.26741 7.03291 0.747087 7.83448 1.12521 8.68604C1.55021 9.72512 4.57209 9.39384 6.41441 9.39384C11.3252 9.39384 16.238 9.5829 21.2424 9.5829L32.6236 9.48915C31.6798 11.2845 27.4284 14.2112 29.3658 15.5812C30.547 16.478 31.208 15.203 31.633 14.7312C33.333 12.7952 34.7033 11.0952 36.261 9.06395C38.1501 6.56083 36.0719 6.79675 32.5782 3.67955C31.9173 3.06547 29.3204 0.37331 28.9891 0.23267C28.0454 -0.23921 27.1 0.515483 27.1938 1.50767C27.2876 2.73579 32.1046 6.46687 32.3406 6.93887L32.3408 6.9376Z" fill="#ACD15D"/>
</svg>
