<svg width="157" height="121" viewBox="0 0 157 121" fill="none" xmlns="http://www.w3.org/2000/svg">
<path d="M131.048 75.3787V15.558C131.02 7.24729 124.286 0.512967 115.975 0.485355C111.93 0.416215 108.031 1.97879 105.148 4.80663C102.258 7.64147 100.633 11.5133 100.626 15.558V17.494C91.3817 8.69922 79.5452 3.11965 66.872 1.5847C54.2055 0.0497782 41.3734 2.64256 30.2967 8.97587C19.0337 15.6272 10.2107 25.7217 5.14324 37.7791C0.0682948 49.8372 -0.982555 63.2016 2.14256 75.9031C7.19679 95.4209 21.7931 111.054 40.9162 117.436C60.0393 123.819 81.1005 120.084 96.8641 107.514C102.935 115.631 113.513 118.957 123.138 115.791C132.762 112.617 139.282 103.656 139.344 93.5205C139.421 86.5373 136.378 79.886 131.048 75.378L131.048 75.3787ZM77.7548 9.7506L74.9892 11.1334C72.8319 12.2397 71.4699 14.4591 71.4768 16.8859V23.0533C71.5114 25.335 69.7206 27.2225 67.4391 27.3123H59.3911C58.0912 27.3054 56.8674 26.7038 56.0723 25.6805L54.413 23.5511C53.1892 21.947 51.2878 21.0067 49.269 21.0067C47.2501 21.0067 45.3488 21.947 44.125 23.5511L41.9677 26.4549C40.7232 28.1281 40.0595 30.1539 40.0595 32.235V38.0705C40.0595 39.2598 39.5617 40.3937 38.6767 41.1957L29.5778 49.4925C28.3955 50.5642 27.6834 52.0714 27.6073 53.6687C27.5312 55.2658 28.0913 56.8285 29.163 58.0107L31.6797 60.7763C33.5327 62.8228 36.5403 63.3483 38.981 62.0485L50.486 55.9087C50.6657 55.7704 50.9146 55.7704 51.0944 55.9087L55.547 60.4997C55.6369 60.5965 55.6922 60.7279 55.6853 60.8592C55.6922 60.9906 55.6369 61.122 55.547 61.2188L40.1147 76.651C38.8011 77.9647 38.1718 79.8108 38.3931 81.6499C38.6213 83.4891 39.6861 85.1276 41.2763 86.0818L53.279 93.3C53.4519 93.3622 53.5763 93.5074 53.6109 93.6872L53.9981 95.6785C54.0465 95.8513 53.9912 96.0311 53.8598 96.1486C53.7146 96.2316 53.5348 96.2316 53.3896 96.1486L37.0171 92.498C33.9958 91.8066 30.9328 93.5144 29.9371 96.4529C29.8611 96.6949 29.6053 96.84 29.3564 96.7847L17.1324 94.0191L16.1644 92.7193C7.41814 80.6887 4.00947 65.5958 6.72678 50.972C9.45098 36.3488 18.0658 23.4893 30.5527 15.4127C43.0396 7.33021 58.2993 4.74442 72.7495 8.25663C74.4642 8.67838 76.1306 9.1762 77.7553 9.75007L77.7548 9.7506ZM23.6601 101.015L28.1957 101.983C28.6175 102.032 29.0462 102.032 29.4679 101.983C32.033 101.976 34.3078 100.359 35.1652 97.9456C35.2412 97.7036 35.4971 97.5584 35.746 97.6137L52.0908 101.32C54.0821 101.776 56.1633 101.202 57.6359 99.7848C59.1017 98.3605 59.7516 96.3 59.3644 94.295L58.9772 92.3037C58.6661 90.6305 57.6635 89.1648 56.2116 88.266L44.2089 81.0478C44.0844 80.951 44.0084 80.8058 44.0084 80.6468C44.0084 80.4877 44.0844 80.3426 44.2089 80.2458L59.6411 64.8135C60.775 63.6796 61.418 62.1447 61.418 60.5405C61.418 58.9364 60.775 57.4016 59.6411 56.2676L54.9949 52.202C53.1212 50.3145 50.2242 49.8858 47.8873 51.1511L36.3823 57.3185C36.2025 57.4568 35.9536 57.4568 35.7738 57.3185L33.2571 54.5529C33.1603 54.4561 33.105 54.3316 33.105 54.1934C33.105 54.0551 33.1603 53.9306 33.2571 53.8338L42.3559 45.537C44.3955 43.6908 45.5572 41.0705 45.5641 38.3187V32.345C45.5641 31.4461 45.8545 30.575 46.3938 29.856L48.551 26.9521C48.7239 26.7101 49.0005 26.5649 49.2978 26.5649C49.2978 26.5649 49.7956 26.5649 50.0445 26.9245L51.7039 29.054C53.55 31.4325 56.3846 32.829 59.3924 32.8428H67.4404C70.0193 32.8428 72.5015 31.8195 74.3268 29.9942C76.152 28.1688 77.1754 25.6867 77.1754 23.1078V16.8852C77.1754 16.5395 77.369 16.2215 77.6732 16.0555L84.449 12.5985C90.6163 15.8067 96.1129 20.1763 100.628 25.4586V62.1578C99.8949 61.7568 99.1275 61.4249 98.3323 61.1622L94.5711 59.5581C93.769 59.2263 94.5711 57.9817 94.737 57.318C95.1449 55.0363 94.2115 52.727 92.3308 51.3719L87.5186 48.1084C85.6587 46.8293 83.2249 46.7325 81.2684 47.8595L68.2698 55.3267C65.9605 56.6681 64.8335 59.3784 65.5042 61.9642L67.9103 71.1737C68.3252 72.8607 69.4729 74.2643 71.0355 75.018C71.5609 75.2669 72.8055 75.5711 72.363 76.3178C69.5973 80.9641 62.2131 93.3265 62.1302 93.6584C61.584 94.5779 61.2936 95.6289 61.3005 96.7006V108.648C61.2867 111.144 62.8631 113.37 65.2278 114.179C65.698 114.352 66.1958 114.456 66.6936 114.484C51.1024 116.585 35.3805 111.683 23.7428 101.098L23.6601 101.015ZM100.627 75.3787C96.9485 78.49 94.2797 82.6316 92.966 87.2709L91.7492 88.6261C91.6524 88.6537 91.5417 88.6537 91.4449 88.6261L81.7652 87.5751C79.3245 87.3954 77.029 88.7229 75.9574 90.9215L67.6606 108.676C67.6606 108.842 67.4117 108.925 67.1351 108.898C66.983 108.849 66.8793 108.697 66.8862 108.538V96.3694L77.2019 78.863C78.0316 77.4456 78.2321 75.7448 77.762 74.1753C77.2918 72.5989 76.1856 71.2922 74.7128 70.5661L73.4959 69.9577L73.2747 69.6811L70.8133 60.4992C70.7649 60.3264 70.8479 60.1397 71.0069 60.0567L84.033 52.6449H84.2543L89.0666 55.9084C89.2187 56.0121 89.2878 56.2057 89.2325 56.3785L89.0113 56.9317C88.4305 58.3905 88.4581 60.0154 89.0804 61.4535C89.7027 62.8916 90.8711 64.0186 92.3299 64.5924L100.627 68.1876L100.627 75.3787ZM68.9597 114.097C70.4462 113.579 71.6699 112.493 72.3615 111.083L80.6583 93.328C80.7344 93.1829 80.8865 93.0999 81.0455 93.1068L90.7253 94.1577C91.1471 94.2061 91.5757 94.2061 91.9975 94.1577C92.0874 97.0754 92.7027 99.9517 93.8227 102.648C86.7082 108.553 78.1901 112.528 69.0976 114.208L68.9597 114.097ZM115.727 111.332C107.941 111.276 101.069 106.257 98.6421 98.8657C96.2152 91.4676 98.7873 83.3506 105.024 78.6965C105.722 78.171 106.13 77.3552 106.13 76.484V15.5571C106.144 10.2816 110.424 6.01572 115.699 6.01572C118.271 5.95349 120.76 6.93529 122.606 8.72594C124.452 10.5236 125.503 12.9849 125.517 15.5571V76.7318C125.524 77.6099 125.946 78.4258 126.651 78.9443C132.936 83.563 135.542 91.7007 133.115 99.1135C130.688 106.525 123.775 111.538 115.975 111.552L115.727 111.332ZM123.553 82.6242C122.039 81.5387 120.318 80.7989 118.492 80.4393V42.6887C118.492 41.1607 117.255 39.9231 115.727 39.9231C114.199 39.9231 112.961 41.1607 112.961 42.6887V80.6605C111.136 81.0131 109.407 81.7598 107.9 82.8454C103.295 86.2265 101.387 92.1862 103.164 97.6208C104.948 103.048 110.016 106.72 115.727 106.72C121.438 106.72 126.506 103.048 128.29 97.6208C130.066 92.1864 128.158 86.2265 123.553 82.8454V82.6242ZM115.727 100.988C112.435 100.946 109.539 98.8237 108.515 95.6986C107.485 92.5735 108.564 89.1372 111.191 87.1598C113.528 85.452 116.632 85.203 119.211 86.5168C121.797 87.8305 123.422 90.4855 123.415 93.3824C123.45 95.422 122.675 97.3925 121.258 98.8584C119.847 100.331 117.904 101.175 115.865 101.209L115.727 100.988ZM133.814 10.7179C133.814 9.1899 135.052 7.95228 136.58 7.95228H154.086C155.614 7.95228 156.852 9.1899 156.852 10.7179C156.852 12.2459 155.614 13.4835 154.086 13.4835H136.58C135.052 13.4835 133.814 12.2459 133.814 10.7179ZM133.814 25.3756C133.814 23.8476 135.052 22.61 136.58 22.61H146.287C147.815 22.61 149.053 23.8476 149.053 25.3756C149.053 26.9036 147.815 28.1413 146.287 28.1413H136.58C135.086 28.1413 133.856 26.952 133.814 25.4586V25.3756ZM156.853 40.4482C156.853 41.1811 156.562 41.8864 156.044 42.405C155.525 42.9235 154.82 43.2139 154.087 43.2139H136.581C135.053 43.2139 133.815 41.9763 133.815 40.4483C133.815 38.9203 135.053 37.6827 136.581 37.6827H154.087C154.834 37.6827 155.553 37.9869 156.071 38.5193C156.597 39.0586 156.873 39.7845 156.853 40.5312L156.853 40.4482ZM156.853 69.7913C156.853 70.5242 156.562 71.2294 156.044 71.748C155.525 72.2666 154.82 72.557 154.087 72.557H136.581C135.053 72.557 133.815 71.3194 133.815 69.7914C133.815 68.2633 135.053 67.0257 136.581 67.0257H154.087C154.827 67.0257 155.539 67.323 156.064 67.8554C156.583 68.3878 156.866 69.1069 156.853 69.8467L156.853 69.7913ZM133.814 55.1888C133.814 53.6608 135.052 52.4232 136.58 52.4232H146.287C147.815 52.4232 149.053 53.6608 149.053 55.1888C149.053 56.7168 147.815 57.9544 146.287 57.9544H136.58C135.052 57.9544 133.814 56.7168 133.814 55.1888ZM113.072 30.6017V25.4578C113.072 23.9298 114.309 22.6921 115.837 22.6921C117.365 22.6921 118.603 23.9298 118.603 25.4578V30.6017C118.603 32.1297 117.365 33.3674 115.837 33.3674C114.309 33.3674 113.072 32.1297 113.072 30.6017Z" fill="#10877A"/>
</svg>
