<svg width="37" height="16" viewBox="0 0 37 16" fill="none" xmlns="http://www.w3.org/2000/svg">
<path fill-rule="evenodd" clip-rule="evenodd" d="M4.6592 9.0624L19.8656 9.0624C20.7625 9.0624 33.8436 9.44053 35.0248 9.10928C35.7326 8.96709 36.2529 8.16552 35.8748 7.31396C35.4498 6.27488 32.4279 6.60616 30.5856 6.60616C25.6748 6.60616 20.762 6.4171 15.7576 6.4171L4.3764 6.51085C5.32016 4.71553 9.5716 1.78885 7.6342 0.418849C6.45296 -0.478031 5.792 0.796973 5.367 1.26885C3.667 3.20477 2.29668 4.90477 0.738998 6.93605C-1.15008 9.43917 0.928059 9.20325 4.42179 12.3204C5.08271 12.9345 7.6796 15.6267 8.01088 15.7673C8.95464 16.2392 9.89996 15.4845 9.8062 14.4923C9.71244 13.2642 4.8954 9.53313 4.6594 9.06113L4.6592 9.0624Z" fill="#D4E09B" fill-opacity="0.3"/>
</svg>
