<svg width="107" height="82" viewBox="0 0 107 82" fill="black" xmlns="http://www.w3.org/2000/svg">
<path d="M88.6256 51.0872V10.5308C88.6068 4.8964 84.0412 0.330759 78.4069 0.312039C75.6646 0.265164 73.0209 1.32454 71.0662 3.24172C69.1068 5.16364 68.0052 7.78864 68.0006 10.5308V11.8433C61.7333 5.88076 53.7086 2.098 45.1166 1.05736C36.5291 0.0167326 27.8294 1.77455 20.3198 6.06832C12.6838 10.5777 6.70218 17.4214 3.26658 25.5959C-0.174062 33.7709 -0.886502 42.8315 1.23222 51.4427C4.65882 64.6751 14.5546 75.2735 27.5194 79.6007C40.4842 83.9279 54.763 81.396 65.4502 72.8741C69.5658 78.3772 76.7376 80.6319 83.263 78.4851C89.788 76.3335 94.2083 70.2585 94.2504 63.3867C94.302 58.6523 92.2395 54.143 88.6255 51.0867L88.6256 51.0872ZM52.4948 6.59356L50.6198 7.53106C49.1572 8.28106 48.2338 9.78574 48.2385 11.4311V15.6123C48.2619 17.1593 47.0479 18.4389 45.5011 18.4998H40.0448C39.1635 18.4951 38.3338 18.0873 37.7948 17.3935L36.6698 15.9498C35.8401 14.8623 34.5511 14.2248 33.1823 14.2248C31.8136 14.2248 30.5246 14.8623 29.6949 15.9498L28.2323 17.9185C27.3886 19.0529 26.9386 20.4263 26.9386 21.8372V25.7935C26.9386 26.5998 26.6011 27.3685 26.0011 27.9122L19.8324 33.5372C19.0308 34.2638 18.548 35.2856 18.4964 36.3685C18.4449 37.4513 18.8246 38.5108 19.5511 39.3122L21.2574 41.1872C22.5137 42.5747 24.5527 42.931 26.2074 42.0497L34.0074 37.8872C34.1293 37.7934 34.298 37.7934 34.4199 37.8872L37.4386 40.9997C37.4996 41.0654 37.5371 41.1544 37.5324 41.2435C37.5371 41.3326 37.4996 41.4216 37.4386 41.4872L26.9761 51.9498C26.0854 52.8404 25.6588 54.092 25.8089 55.3388C25.9636 56.5857 26.6854 57.6966 27.7636 58.3435L35.901 63.2372C36.0182 63.2794 36.1026 63.3779 36.126 63.4997L36.3885 64.8497C36.4213 64.9669 36.3838 65.0888 36.2947 65.1685C36.1963 65.2247 36.0744 65.2247 35.976 65.1685L24.876 62.6935C22.8276 62.2247 20.751 63.3825 20.076 65.3748C20.0244 65.5388 19.851 65.6373 19.6823 65.5998L11.3948 63.7248L10.7386 62.8435C4.80888 54.6872 2.49792 44.4547 4.34016 34.5403C6.18708 24.6263 12.0276 15.9079 20.4934 10.4323C28.959 4.95262 39.3046 3.19954 49.1014 5.5807C50.2639 5.86663 51.3936 6.20413 52.4951 6.5932L52.4948 6.59356ZM15.8204 68.468L18.8954 69.1242C19.1813 69.157 19.4719 69.157 19.7579 69.1242C21.4969 69.1195 23.0392 68.0226 23.6204 66.3868C23.672 66.2227 23.8454 66.1243 24.0142 66.1618L35.0955 68.6743C36.4455 68.9837 37.8564 68.5947 38.8548 67.6337C39.8486 66.6681 40.2892 65.2711 40.0267 63.9118L39.7642 62.5618C39.5533 61.4274 38.8736 60.4337 37.8892 59.8243L29.7518 54.9306C29.6674 54.865 29.6158 54.7666 29.6158 54.6588C29.6158 54.5509 29.6674 54.4525 29.7518 54.3869L40.2143 43.9243C40.9831 43.1556 41.419 42.115 41.419 41.0274C41.419 39.9398 40.9831 38.8993 40.2143 38.1305L37.0643 35.3742C35.794 34.0945 33.83 33.8039 32.2456 34.6617L24.4456 38.843C24.3237 38.9367 24.155 38.9367 24.0331 38.843L22.3268 36.968C22.2612 36.9024 22.2237 36.818 22.2237 36.7242C22.2237 36.6305 22.2612 36.5461 22.3268 36.4805L28.4955 30.8555C29.8783 29.6039 30.6659 27.8274 30.6705 25.9618V21.9118C30.6705 21.3024 30.8674 20.7118 31.233 20.2243L32.6956 18.2556C32.8128 18.0916 33.0003 17.9931 33.2018 17.9931C33.2018 17.9931 33.5393 17.9931 33.7081 18.2369L34.8331 19.6806C36.0847 21.2931 38.0065 22.2399 40.0457 22.2493H45.5019C47.2503 22.2493 48.9332 21.5556 50.1707 20.318C51.4081 19.0805 52.1019 17.3977 52.1019 15.6493V11.4306C52.1019 11.1962 52.2332 10.9806 52.4394 10.8681L57.0332 8.52436C61.2144 10.6994 64.9409 13.6618 68.0019 17.2431V42.1239C67.505 41.852 66.9847 41.627 66.4456 41.4489L63.8956 40.3614C63.3519 40.1364 63.8956 39.2926 64.0081 38.8427C64.2847 37.2957 63.6518 35.7301 62.3768 34.8114L59.1143 32.5988C57.8533 31.7316 56.2033 31.666 54.8768 32.4301L46.0643 37.4926C44.4986 38.402 43.7346 40.2396 44.1893 41.9926L45.8205 48.2364C46.1018 49.3801 46.8799 50.3317 47.9393 50.8426C48.2955 51.0114 49.1393 51.2176 48.8393 51.7239C46.9643 54.8739 41.958 63.2552 41.9018 63.4802C41.5315 64.1036 41.3346 64.8161 41.3393 65.5427V73.6427C41.3299 75.335 42.3987 76.8443 44.0019 77.3927C44.3206 77.5099 44.6581 77.5802 44.9956 77.599C34.4253 79.024 23.7664 75.7006 15.8764 68.524L15.8204 68.468ZM68.0012 51.0872C65.5075 53.1965 63.6981 56.0044 62.8075 59.1497L61.9825 60.0685C61.9168 60.0872 61.8418 60.0872 61.7762 60.0685L55.2136 59.356C53.559 59.2341 52.0027 60.1341 51.2762 61.6247L45.6512 73.6619C45.6512 73.7744 45.4825 73.8306 45.2949 73.8119C45.1918 73.7791 45.1215 73.6759 45.1262 73.5681V65.3181L52.1199 53.4494C52.6824 52.4885 52.8184 51.3354 52.4996 50.2713C52.1809 49.2026 51.4309 48.3167 50.4324 47.8244L49.6074 47.4119L49.4574 47.2244L47.7887 40.9994C47.7558 40.8822 47.8121 40.7557 47.9199 40.6994L56.7512 35.6744H56.9012L60.1637 37.887C60.2669 37.9573 60.3137 38.0885 60.2762 38.2057L60.1262 38.5807C59.7325 39.5698 59.7512 40.6714 60.1731 41.6464C60.595 42.6214 61.3872 43.3854 62.3762 43.7744L68.0012 46.2119L68.0012 51.0872ZM46.532 77.3372C47.5398 76.9856 48.3694 76.2497 48.8382 75.2934L54.4632 63.2562C54.5148 63.1578 54.6179 63.1015 54.7257 63.1062L61.2883 63.8187C61.5742 63.8515 61.8649 63.8515 62.1508 63.8187C62.2118 65.7968 62.6289 67.7468 63.3882 69.575C58.5648 73.5781 52.7899 76.2734 46.6255 77.4125L46.532 77.3372ZM78.2384 75.4622C72.9603 75.4247 68.3009 72.0215 66.6556 67.0106C65.0103 61.9949 66.7541 56.4918 70.9822 53.3366C71.4556 52.9803 71.7322 52.4272 71.7322 51.8366V10.5302C71.7416 6.95356 74.6432 4.06144 78.2197 4.06144C79.9634 4.01925 81.6509 4.68488 82.9024 5.89888C84.154 7.1176 84.8665 8.78632 84.8758 10.5302V52.0046C84.8805 52.5999 85.1664 53.153 85.6446 53.5046C89.9055 56.6358 91.6726 62.153 90.0273 67.1786C88.382 72.2036 83.6946 75.602 78.407 75.6113L78.2384 75.4622ZM83.5447 55.9994C82.5181 55.2634 81.3509 54.7619 80.1134 54.5181V28.9245C80.1134 27.8885 79.2743 27.0495 78.2384 27.0495C77.2024 27.0495 76.3634 27.8885 76.3634 28.9245V54.6681C75.1259 54.9071 73.954 55.4134 72.9321 56.1494C69.8102 58.4416 68.5164 62.4821 69.7211 66.1666C70.9305 69.8463 74.3664 72.3353 78.2384 72.3353C82.1103 72.3353 85.5461 69.8463 86.7556 66.1666C87.9603 62.4822 86.6665 58.4416 83.5447 56.1494V55.9994ZM78.2384 68.4493C76.0071 68.4212 74.0431 66.9821 73.3493 64.8634C72.6509 62.7447 73.3821 60.415 75.1634 59.0744C76.7477 57.9165 78.8524 57.7478 80.6008 58.6384C82.3539 59.5291 83.4555 61.3291 83.4508 63.2931C83.4743 64.6759 82.9492 66.0118 81.9883 67.0057C81.032 68.0041 79.7149 68.576 78.332 68.5994L78.2384 68.4493ZM90.5012 7.24936C90.5012 6.21342 91.3402 5.37436 92.3762 5.37436H104.245C105.281 5.37436 106.12 6.21342 106.12 7.24936C106.12 8.2853 105.281 9.12436 104.245 9.12436H92.3762C91.3402 9.12436 90.5012 8.2853 90.5012 7.24936ZM90.5012 17.1868C90.5012 16.1509 91.3402 15.3118 92.3762 15.3118H98.9574C99.9934 15.3118 100.832 16.1509 100.832 17.1868C100.832 18.2227 99.9934 19.0618 98.9574 19.0618H92.3762C91.3637 19.0618 90.5293 18.2555 90.5012 17.2431V17.1868ZM106.12 27.4055C106.12 27.9024 105.923 28.3805 105.572 28.7321C105.22 29.0837 104.742 29.2806 104.245 29.2806H92.3766C91.3407 29.2806 90.5016 28.4415 90.5016 27.4056C90.5016 26.3696 91.3407 25.5306 92.3766 25.5306H104.245C104.752 25.5306 105.239 25.7368 105.591 26.0977C105.947 26.4634 106.134 26.9556 106.12 27.4618L106.12 27.4055ZM106.12 47.2991C106.12 47.796 105.923 48.2741 105.572 48.6257C105.22 48.9773 104.742 49.1742 104.245 49.1742H92.3766C91.3407 49.1742 90.5016 48.3351 90.5016 47.2992C90.5016 46.2632 91.3407 45.4242 92.3766 45.4242H104.245C104.747 45.4242 105.23 45.6257 105.586 45.9867C105.938 46.3476 106.13 46.8351 106.12 47.3367L106.12 47.2991ZM90.5012 37.3991C90.5012 36.3632 91.3402 35.5241 92.3762 35.5241H98.9574C99.9934 35.5241 100.832 36.3632 100.832 37.3991C100.832 38.4351 99.9934 39.2741 98.9574 39.2741H92.3762C91.3402 39.2741 90.5012 38.4351 90.5012 37.3991ZM76.4384 20.7299V17.2425C76.4384 16.2065 77.2774 15.3675 78.3134 15.3675C79.3493 15.3675 80.1884 16.2065 80.1884 17.2425V20.7299C80.1884 21.7659 79.3493 22.6049 78.3134 22.6049C77.2774 22.6049 76.4384 21.7659 76.4384 20.7299Z" fill="white"/>
</svg>
